<mxfile host="app.diagrams.net" agent="Mozilla/5.0 (Windows NT 10.0; Win64; x64) AppleWebKit/537.36 (KHTML, like Gecko) Chrome/140.0.0.0 Safari/537.36" version="28.2.5">
  <diagram name="HERMIA Arquitetura" id="AvzGmd5DzwsPFSKGmps6">
    <mxGraphModel dx="1226" dy="671" grid="1" gridSize="10" guides="1" tooltips="1" connect="1" arrows="1" fold="1" page="1" pageScale="1" pageWidth="1169" pageHeight="827" math="0" shadow="0">
      <root>
        <mxCell id="0" />
        <mxCell id="1" parent="0" />
        <mxCell id="XDLAwlJEfVSTo-9sgTL8-43" value="" style="shape=hexagon;whiteSpace=wrap;html=1;fontSize=12;textShadow=1;" parent="1" vertex="1">
          <mxGeometry x="650" y="120" width="126" height="80" as="geometry" />
        </mxCell>
        <mxCell id="XDLAwlJEfVSTo-9sgTL8-1" value="" style="shape=ellipse;whiteSpace=wrap;html=1;fillColor=#647687;strokeColor=#314354;fontSize=12;labelBorderColor=none;labelBackgroundColor=none;textShadow=1;fontColor=#ffffff;" parent="1" vertex="1">
          <mxGeometry x="355" y="400" width="110" height="80" as="geometry" />
        </mxCell>
        <mxCell id="XDLAwlJEfVSTo-9sgTL8-7" value="" style="shape=rectangle;whiteSpace=wrap;html=1;fillColor=#647687;strokeColor=#314354;fontSize=12;textShadow=1;fontColor=#ffffff;" parent="1" vertex="1">
          <mxGeometry x="740" y="440" width="140" height="80" as="geometry" />
        </mxCell>
        <mxCell id="XDLAwlJEfVSTo-9sgTL8-14" value="&lt;span style=&quot;text-wrap-mode: wrap;&quot;&gt;&lt;b&gt;&lt;font face=&quot;Verdana&quot;&gt;Sensores (Reais ou Simulados)&lt;/font&gt;&lt;/b&gt;&lt;/span&gt;" style="text;html=1;align=center;verticalAlign=middle;resizable=0;points=[];autosize=1;strokeColor=none;fillColor=none;" parent="1" vertex="1">
          <mxGeometry x="292.5" y="490" width="230" height="30" as="geometry" />
        </mxCell>
        <mxCell id="XDLAwlJEfVSTo-9sgTL8-15" value="" style="image;aspect=fixed;perimeter=ellipsePerimeter;html=1;align=center;shadow=0;dashed=0;fontColor=#4277BB;labelBackgroundColor=default;fontSize=12;spacingTop=3;image=img/lib/ibm/users/sensor.svg;fillColor=#FFDADA;" parent="1" vertex="1">
          <mxGeometry x="380" y="410" width="60" height="60" as="geometry" />
        </mxCell>
        <mxCell id="XDLAwlJEfVSTo-9sgTL8-16" value="" style="shape=hexagon;whiteSpace=wrap;html=1;fontSize=12;textShadow=1;" parent="1" vertex="1">
          <mxGeometry x="350" y="240" width="120" height="80" as="geometry" />
        </mxCell>
        <mxCell id="XDLAwlJEfVSTo-9sgTL8-17" value="&lt;div style=&quot;line-height: 110%;&quot;&gt;&lt;br&gt;&lt;/div&gt;" style="shape=rectangle;whiteSpace=wrap;html=1;fillColor=#f5f5f5;strokeColor=#666666;fontSize=12;textShadow=1;fontColor=#333333;" parent="1" vertex="1">
          <mxGeometry x="360" y="120" width="100" height="80" as="geometry" />
        </mxCell>
        <mxCell id="XDLAwlJEfVSTo-9sgTL8-18" value="" style="shape=rectangle;whiteSpace=wrap;html=1;fillColor=#647687;strokeColor=#314354;fontSize=12;textShadow=1;fontColor=#ffffff;" parent="1" vertex="1">
          <mxGeometry x="500" y="120" width="110" height="80" as="geometry" />
        </mxCell>
        <mxCell id="XDLAwlJEfVSTo-9sgTL8-20" value="" style="shape=rectangle;whiteSpace=wrap;html=1;fillColor=#eeeeee;strokeColor=#36393d;fontSize=12;textShadow=1;" parent="1" vertex="1">
          <mxGeometry x="920" y="280" width="120" height="80" as="geometry" />
        </mxCell>
        <mxCell id="XDLAwlJEfVSTo-9sgTL8-21" style="endArrow=block;" parent="1" source="XDLAwlJEfVSTo-9sgTL8-16" target="XDLAwlJEfVSTo-9sgTL8-17" edge="1">
          <mxGeometry relative="1" as="geometry" />
        </mxCell>
        <mxCell id="XDLAwlJEfVSTo-9sgTL8-22" style="endArrow=block;" parent="1" source="XDLAwlJEfVSTo-9sgTL8-17" target="XDLAwlJEfVSTo-9sgTL8-18" edge="1">
          <mxGeometry relative="1" as="geometry" />
        </mxCell>
        <mxCell id="XDLAwlJEfVSTo-9sgTL8-23" style="endArrow=block;" parent="1" source="XDLAwlJEfVSTo-9sgTL8-18" edge="1">
          <mxGeometry relative="1" as="geometry">
            <mxPoint x="650" y="160" as="targetPoint" />
          </mxGeometry>
        </mxCell>
        <mxCell id="XDLAwlJEfVSTo-9sgTL8-24" style="endArrow=block;" parent="1" edge="1">
          <mxGeometry relative="1" as="geometry">
            <mxPoint x="776" y="159.75" as="sourcePoint" />
            <mxPoint x="840" y="160" as="targetPoint" />
            <Array as="points">
              <mxPoint x="786" y="159.75" />
            </Array>
          </mxGeometry>
        </mxCell>
        <mxCell id="XDLAwlJEfVSTo-9sgTL8-25" value="&lt;font face=&quot;Verdana&quot;&gt;&lt;b&gt;&lt;span style=&quot;text-wrap-mode: wrap;&quot;&gt;ESP32&lt;/span&gt;&lt;br style=&quot;text-wrap-mode: wrap;&quot;&gt;&lt;span style=&quot;text-wrap-mode: wrap;&quot;&gt;(Microcontrolador)&lt;/span&gt;&lt;/b&gt;&lt;/font&gt;" style="text;html=1;align=center;verticalAlign=middle;resizable=0;points=[];autosize=1;strokeColor=none;fillColor=none;" parent="1" vertex="1">
          <mxGeometry x="335" y="320" width="150" height="40" as="geometry" />
        </mxCell>
        <mxCell id="XDLAwlJEfVSTo-9sgTL8-30" value="&lt;span style=&quot;text-wrap-mode: wrap;&quot;&gt;&lt;font face=&quot;Verdana&quot;&gt;&lt;b&gt;MQTT&lt;/b&gt;&lt;/font&gt;&lt;/span&gt;&lt;div&gt;&lt;span style=&quot;text-wrap-mode: wrap;&quot;&gt;&lt;font face=&quot;Verdana&quot;&gt;&lt;b&gt;Protocolo de comunicação para IoT&lt;/b&gt;&lt;/font&gt;&lt;/span&gt;&lt;/div&gt;" style="text;html=1;align=center;verticalAlign=middle;resizable=0;points=[];autosize=1;strokeColor=none;fillColor=none;" parent="1" vertex="1">
          <mxGeometry x="280" y="60" width="260" height="40" as="geometry" />
        </mxCell>
        <mxCell id="XDLAwlJEfVSTo-9sgTL8-31" value="&lt;span style=&quot;text-wrap-mode: wrap;&quot;&gt;&lt;font face=&quot;Verdana&quot;&gt;&lt;b&gt;Processamento Local IA&lt;/b&gt;&lt;/font&gt;&lt;/span&gt;" style="text;html=1;align=center;verticalAlign=middle;resizable=0;points=[];autosize=1;strokeColor=none;fillColor=none;" parent="1" vertex="1">
          <mxGeometry x="460" y="80" width="190" height="30" as="geometry" />
        </mxCell>
        <mxCell id="XDLAwlJEfVSTo-9sgTL8-32" value="&lt;span style=&quot;text-wrap-mode: wrap;&quot;&gt;&lt;b&gt;&lt;font style=&quot;line-height: 110%;&quot; face=&quot;Verdana&quot;&gt;Banco de Dados (Oracle)&lt;/font&gt;&lt;/b&gt;&lt;/span&gt;" style="text;html=1;align=center;verticalAlign=middle;resizable=0;points=[];autosize=1;strokeColor=none;fillColor=none;spacing=0;" parent="1" vertex="1">
          <mxGeometry x="619" y="80" width="190" height="20" as="geometry" />
        </mxCell>
        <mxCell id="XDLAwlJEfVSTo-9sgTL8-35" value="&lt;span style=&quot;text-wrap-mode: wrap;&quot;&gt;&lt;b&gt;&lt;font style=&quot;line-height: 110%;&quot; face=&quot;Verdana&quot;&gt;Dashboard&amp;nbsp;&lt;/font&gt;&lt;/b&gt;&lt;/span&gt;(Streamlit)" style="text;html=1;align=center;verticalAlign=middle;resizable=0;points=[];autosize=1;strokeColor=none;fillColor=none;spacing=0;" parent="1" vertex="1">
          <mxGeometry x="907.08" y="370" width="150" height="20" as="geometry" />
        </mxCell>
        <mxCell id="XDLAwlJEfVSTo-9sgTL8-37" value="&lt;b&gt;&lt;span style=&quot;text-wrap-mode: wrap;&quot;&gt;&lt;font style=&quot;&quot; face=&quot;Verdana&quot;&gt;Alertas&amp;nbsp;&lt;/font&gt;&lt;/span&gt;&lt;/b&gt;&lt;div&gt;&lt;div&gt;&lt;b&gt;&lt;span style=&quot;text-wrap-mode: wrap;&quot;&gt;&lt;font style=&quot;&quot; face=&quot;Verdana&quot;&gt;E-&lt;/font&gt;&lt;/span&gt;&lt;span style=&quot;font-family: Verdana; text-wrap-mode: wrap; color: light-dark(rgb(0, 0, 0), rgb(255, 255, 255));&quot;&gt;mail ou WhatsApp&lt;/span&gt;&lt;/b&gt;&lt;/div&gt;&lt;/div&gt;" style="text;html=1;align=center;verticalAlign=middle;resizable=0;points=[];autosize=1;strokeColor=none;fillColor=none;spacing=0;" parent="1" vertex="1">
          <mxGeometry x="730" y="530" width="160" height="40" as="geometry" />
        </mxCell>
        <mxCell id="XDLAwlJEfVSTo-9sgTL8-38" value="" style="shape=image;html=1;verticalAlign=top;verticalLabelPosition=bottom;labelBackgroundColor=#ffffff;imageAspect=0;aspect=fixed;image=https://cdn4.iconfinder.com/data/icons/social-media-and-logos-12/32/Logo_Whatsapp_telephone_handset-128.png" parent="1" vertex="1">
          <mxGeometry x="820" y="455" width="50" height="50" as="geometry" />
        </mxCell>
        <mxCell id="XDLAwlJEfVSTo-9sgTL8-40" value="" style="sketch=0;outlineConnect=0;fontColor=#232F3E;gradientColor=none;fillColor=#232F3D;strokeColor=none;dashed=0;verticalLabelPosition=bottom;verticalAlign=top;align=center;html=1;fontSize=12;fontStyle=0;aspect=fixed;pointerEvents=1;shape=mxgraph.aws4.email_2;" parent="1" vertex="1">
          <mxGeometry x="750" y="460.5" width="62.08" height="39" as="geometry" />
        </mxCell>
        <mxCell id="XDLAwlJEfVSTo-9sgTL8-41" value="" style="shape=image;html=1;verticalAlign=top;verticalLabelPosition=bottom;labelBackgroundColor=#ffffff;imageAspect=0;aspect=fixed;image=https://cdn3.iconfinder.com/data/icons/user-interface-169/32/dashboard-128.png" parent="1" vertex="1">
          <mxGeometry x="952.08" y="290" width="60" height="60" as="geometry" />
        </mxCell>
        <mxCell id="XDLAwlJEfVSTo-9sgTL8-42" value="" style="image;aspect=fixed;html=1;points=[];align=center;fontSize=12;image=img/lib/azure2/databases/Oracle_Database.svg;sketch=1;curveFitting=1;jiggle=2;imageBackground=none;imageBorder=none;" parent="1" vertex="1">
          <mxGeometry x="684" y="131" width="58" height="58" as="geometry" />
        </mxCell>
        <mxCell id="XDLAwlJEfVSTo-9sgTL8-44" value="" style="sketch=0;outlineConnect=0;dashed=0;verticalLabelPosition=bottom;verticalAlign=top;align=center;html=1;fontSize=12;fontStyle=0;aspect=fixed;pointerEvents=1;shape=mxgraph.aws4.patch_manager;fillColor=#f5f5f5;gradientColor=#b3b3b3;strokeColor=#666666;" parent="1" vertex="1">
          <mxGeometry x="522.5" y="127.5" width="65" height="65" as="geometry" />
        </mxCell>
        <mxCell id="XDLAwlJEfVSTo-9sgTL8-45" value="" style="shape=image;verticalLabelPosition=bottom;labelBackgroundColor=default;verticalAlign=top;aspect=fixed;imageAspect=0;image=data:image/png,iVBORw0KGgoAAAANSUhEUgAAAFwAAABcCAMAAADUMSJqAAAAY1BMVEUAAAD///8NDQ3a2tqvr6/w8PCbm5v6+vpgYGDf39/s7Ox0dHTCwsL09PTj4+PU1NS2trZMTExWVlaFhYUwMDAaGhpvb284ODhlZWVbW1uMjIx6enolJSWhoaHJycmoqKhDQ0PwFcZ5AAAEHklEQVRoga2a65aqMAyFi4IockfFGzO8/1Oe4ujRJDu9zJr966xD+01J0yQNmiRp+5VL5lzmia7SGDitS5PEJCfj1XGodXq1VWadE9P62Yu6Lx3/rcxJTRcGN2ZsVfr6DmfMoehFx1Sj5+cYjqK7ip/+gG5GzfZff0E3/Q7Ti8Of4AfF8L0YWWVZsf4q082+H1eh+BLj93zc58OsLq+XIPqpgvSrA/6juj1hvw1Y/MYHX7SepAGZ9jDiUJfEcKsq9Rze+xpNI7FAhVsV0+jEf/ss44JbNc6DfUJTPnbVA7fLvzo89FCAGadwuLX+RqevkOH7CHgiXOxTKBIfouBJNaj0SY4u4uB2gpbOzFUObiLhNhdrB/cmx6ax8CTRbANc8rb8f9f3l/Nt+C4b5FVcjbJ4QJ/piHs3tI4a4qH8hul7MTKDi0jdf6AMtbuS+MYrjElPFTjgSJ9Rvfe4caxfZJyHpL9rcKteL7JwISHyhwNuA0eqlaDYnrwucMKtdSYFv4ajqyi4XT3MCDbTIo/vIuE2ZuNcnCH6EAs3ZgsPL6S30XAlW1aIXsfDTYcWn4EEOP4CjjNOAejX38BR1IYe2bzhVVavv9rpNvtLuBGYBoSx1Rv+/1+5rUJnD76RdBAJBgl/qGrPzjoaGB5cNV8xVaa5qnVV0cAn5eu+PAbm0ILX2R/ayNFyUOqA2w2YjhpdJgWwqZULbvFqkSXXLvPq4IbruRjQpRvXHrg9Ikp5LnymEUO2XrhagIoEKHNx44drPQN+VnOx/9sAeJLDfsydZz/pMesAuGKaLR8lbn+XIDiusfhR3YkRu8R03WU/TOUOX4l/BFM9L8qE4+7f8fzYbUDMe6oG8AMbU4kRrBQdNH4NYiVvXoi9EdF4VHpB0qTCMGLpqAGDiyx5CEkuXuSIpW/hRhnoEbJx0upQI2o1gYWxd9QiHZeMfEkiMxTbU+RUUJ10/EomEBZjwtpMi6Rbyk1l9yzlvoQkq1tpVLZ0NTlKCa/JRQBmVg/yxqdEypHvTbcmeEshXURW5lZzDJ3HPhEGVvS5ozEDlPn2lOZTFIN0sTuUrK/O9Hlcu5hXWOL6TN8txl+MMLtwCLrpkX30mS2dn3Fmlzg47xgIX6ex0dsEZmJL52echolIo/M95dPpTSz248WKnnFeadA6ANwF3GJW53ahfR9351rqSOG8pqVGj/4gRc849xcad+PCi+EZh5v14vzTXh2pLzOzUqvFxa5F1C48NJLwkkfDqaun7CnN5dFwGnl5GUCT7RxNJ9P5m9NcpzbaVdECjz2kAUD/SKCJRm3mLj15GBu6+JuzU0ijy7voD/3ATd+c5TpaArx8qQv9NM9OIXtzCn8h06AfFTyWQeaz+AHhp+Ue6vk5xPNHETOD08ckOpTLw956wD/5oyxdzW4LNgAAAABJRU5ErkJggg==;shadow=1;sketch=1;curveFitting=1;jiggle=2;" parent="1" vertex="1">
          <mxGeometry x="382" y="132" width="56" height="56" as="geometry" />
        </mxCell>
        <mxCell id="XDLAwlJEfVSTo-9sgTL8-46" value="" style="shape=image;verticalLabelPosition=bottom;labelBackgroundColor=default;verticalAlign=top;aspect=fixed;imageAspect=0;image=data:image/png,iVBORw0KGgoAAAANSUhEUgAAAO8AAADgCAIAAABkRKY7AAAgAElEQVR4Ae2dd3hUxdrAv79UyPbeSwotkEZJo6cQOqGJglwV8Kr0FiAFBNFrQSWFDqHb9cpVlCIlPQRQIQVUOqggJZBsstlAcj7nTPZk9pRld5NsNuHwDHlm58zOnPPO77z7Tn3/D2v7/2prLY48xKNHj+rr6xzJabE4VKD9ohwspL6+/tHDh/aLeuzVhw8f1tfXPzabUxlqa2udyu8Jmf/PE27C5Xu4fu3aS889OzCs96aM9Lo6e6Qe2P9d3ID+o2NjCvNy7VRnsVjeeXPlgD69Zs2Yfuf2bTs57Vy6X14+//VXB/TuuXp5Sk1NjZ2cJ0+ciB86JK5/v/379tnJZv/Sd/u+GdI/Mn7okNMnT9rPefjggYS5c7789BP7srp08cILE8YNDu+zfcvmZn9J7N9hE6+2bZqXzJsr6fC0ViTQS0S//HSaSRb3798PC+yh4nEUnI7DBvW3ozWPHDqo5HF0IoHkmac+fPc/TAXaT1+X+pGkw1M6kUDB6fj9t/9jyvzw4cPRQ6LlXh1UfG4v/65377jy8tz++++eXTur+Fy5V4f4uCEPmdX8ifx8o0wi53RU8jjffPkl011hGDZrxjRph6c1Qr6PUna+rNROTk+71LZpnjJ+LBC6QqYR8A7s/5ZJuNevXu1u1BtlEoNEFBbYo+LBA6acH+/aqeJzfRQyNZ+7aPZMpmz20xMXzIeFqHiczevWMWU2mUz9egbrJSKjTNJNr7188QJTTjvply5e6KrTGGUSvUTUNyS4ymRiyrwpI03J9fJRyJQ8zhuJy5iyYRg2bsRwrZDvI5fpxMK87Cw7OT3tUtumeerE8ZBmrZB/8Pv9TMK9ce1agI8RNnlEcKAdmj/ds1ttpTlh7mymAu2nJy9a2EAzn7Nl/XqmzFUm04DePSHN/kb9lUuXmHLaSb9y6WI3vRY+Wv9ePauq7NCcruJxfBQyFZ+7KjnJTpkTRo2ENOslovzcHDs5Pe0SS7NNi7A0YxjG0mzDhNs+sLqZ1c0obKxuRqWBsbqZ1c02QLjzA6ubWd2M8sbqZlQarG4G0mDtZhsm3PaB1c2sbkZhY3UzKg1WNwNpsLrZhgm3fWB1M6ubUdhY3YxKg9XNQBqsbrZhwm0fWN3M6mYUNlY3o9JgdTOQBqubbZhw2wdWN7O6GYWN1c2oNFjdDKTB6mYbJtz2gdXNrG5GYWN1MyoNVjcDabC62YYJt31gdTOrm1HYWN2MSoPVzUAarG62YcJtH1jdzOpmFLb2o5uPHj6EPhgaR3dSRYYEmaur0atoHF3fvGzBPPSS43F37qT64/o1B3dSbdu4wcGdVM+OGc3upHK8uZstJ7HLVSviJ8yb8+jRI9qir1+92sPbYJRJvOXSThrVD98x7of9ZPdOuC9QLxZFR4bfuHGdtkD7ie6kedvGDQap2Fsu1UtE/UKC7ewLTF6yWC3gwX2BK5MSmR6h+MyZkK6djVJxwy7XnGymnB6Y3rZ186wZ0xT4PmSwy1rAW740oa6OBui7d+707NpJLxH5KGQGqbirTnP4h+9pG+O7fd/Ajc1gH7iQN2zwwD9u3KDNaSfRbTTv3r7NKJUYZRJ81zo/bkD/WoZzbTZlpBvwl9lHIVNwO65Kod/lWnL2bGhAd51I4KOQecukBqn47C8/23lST7vUtmk++8svPbt20ULpy6VqPnfFsiV1dBp664b1OrEANrxeIuqq1xz+4QdqY1RWVLwwcbwS39sMzyHAgXZOQ7uH5j07Mo0yMXwig0Tkp1Iwnd2xZf06nVjY+Ow6TVFhPvXZS4vPRgQFwD3w3nKpis9JWbLYzgEd1BJaPaVt04xh2Omiop5dOhNAq/jclITFtCbHhrRULQq0TnNoP82hBffLyyePi0eBHjpowI3r1xxvKjfQvCtzq8EW5X1ff0V7h5vWZegRlLvoNIfofpdKzp4Jt0GZm7R4YdOPFKO9pZZLbPM0Q6BDbIDmJC1e5AjQXbTqg7RA3ycDHTew/43rjmrolqZ5x9YteqnIKBPjhpPIVyn/5iv6s4s2pqehv0idNaoD+7+jwlR85kxoQHfQ81PIgFbmcZYtmP/wUVNPx6NW1NIp7YHmBqC7ohoa/EoyAY02cBctva6CGhoOAkCTY+igAQ7a0C1K867MrfBAGdgHACgzHMO1MT1NK2o0rjpr1LTd35KzjSj7yKVKHmfp/Hlty8AgXpJ2QnODyWEDNG5D0x21uCEtlWRHHj5AY0OTgFbxucMGD/zTgU5hy9G8Z0cm2cBg0Mpb1megz9hFp6bVyqXFxeGBPRq1Mp+7bOH8NooyhmHth2Yc6BM9bYFevjSBXkOnk4GmtSbvl9+bPG4soaEB0IMG/vE4k6OFaN69He/2SRsMDD+VgslW3rx+HaG/QZcX2Mo0PQTY7UNRTly8kFZchPLz8Ei7ohnDsFNFJ0K6dEI6hZzkJQm0ymZ9Wir6Q9xFqz70Pc2wHa6hG4FW87lDB/a3D3RL0Ay6fVLrCIZU7KuU72PQyhsz0lCt3Fmrpj2hr+TsmTCrVvaBtvKiBW0a5famm6HmwIHurBMLG/o0fO5BOs2EYRgc5fDGx2u1IkFYQPd7d+9Q1c/9++XPj4snNLTcq8OiObOo2YiUZqf51/PnO2mUhgatDFBmspX3/2+fRsgnBuM6M0wVPXz4cMLI4cS4jYrHWbKgrdrKhNjbJ83Qhu7t3w02v5LrtSFtLfrMaHxD2lpvudRbLjXKJF106ksXfkevEnGgocePhW+IRsifOGo4cYkaaXaas48dAzMacplRLumiVX/z1RfUSmHK0gXzIaPgFF2D7gDDrKep0hQZHAink/Ri4dJ2gXK7pRnDsOTFi+Ac9T+HkG/MSGNqfovFMqBPr4ZDlA32DlEuyMuFNGuF/EmjRzEVCKpu7hNvc7Oy9GKhj1wGqh5jr+qlC+ZZD9vlpn+4hukmTZU2R0dfv3qVKWfbSm9vdjMh/ZSExY7QXF1dNTC0t4M066WiBqRaj+bn40cTz0iNLFtoPQidz92zYzs1A0xBafY36Fw7Opqp8FZMZ2l2lOb83BxPoPk5h2nelbmNCSyWZibJeGh6s+tmlmYPbWnktljdzOpm1tJAXgjPjKK6edO6dKabNJurUbv5yqWLTDkL8nIdtTQWN/o92bphA1OB1VVVNn5PLl9mypmX3dgLdNzS2L09k6nAKlMV4UDI36C7ylw1Uwmemd5udTM6prEhPZVJ+lVVJpRmphE6DMPyc7L1UpE3HFgYPdKOI72kRQusAwuczeuZfVJVVjbSbNBdYvZJlXP8uA5fnK0V8gHNzI4u0TGNnZlbmZ66sqKiX68Q2Pf1N+guX2R8h5lK8Mz09knz2V9+Duncybr2VzygTy+mJZ2pa96H480+CpleIpr/+qu07WQ2myfFj4YDtGADi1r59eef0eY88/NPwZ39GqqWigf26cW0VglUbV1BbwBVv0ZbYHV19aTRoxqr1ij/99+vaXP+8tPpoE6+RNWDQvswrfv76L13baqeSV81bS2enNg+ac7LztaJBN5yqY9CZpRJOmlUF37/jbYZlsybS0yJaYX88cOH0marqqqKDA6CSAGXe9yOG9Lo9X1u1nF8pqOh6s4a1cXf6WdkEshVx9FWbTKZIoIaZjrgzpFtm+itl5xjR+GUfsNTq5UXGKpeNHsWMbWpFfLHDaOvmvZ+PDmxfdJckJtrkIgImrvqtRcZJvkSFzZYBT4KMDfx7OiRtK1VZbVxfRQyfGsdZ/O6DNqceTnZYA7S+iJ102svXaB3a7mMXPUI2gKBk0zcKiCq3r5lM23O3KxjxPtmlEm66jQXGapeMm8uHIxveOpR9FXT1uLJiSzNLM38Z1maPfkdPVlYSNLN165eob3h5MWLYI8NaimmeePa2tqB+AR4g4LkcbZtpP+5P1GQT9LN1xjmjR2s2mKx9MddvhK6mWlapDAv10Y367VMT01MGTY8NcMvEq3EPDnRFd385x83/rPyjYS5s5fOn+dySJg7Z83bb9257YqrdEKglZUVJWfPlBafRUNZSfGnu3cb8X350ILEN8PtLyspRrOVFp8tKy1+/eWX4L5OH4VMJxKMjBlcWmJTGvhKydnTJ4siAgPgMibo1nv18mSaAkuKP9610yCTEJYGqPrA9zQ5QdUvwrXF1qqjaKs+VXQiLLAHWvU7q1aWlVKepaR4784denydHfLUdFWXFP/7xamNTy0WjIymeeqSs2fsDLMQTWA/cvjAD4CQeXNd5mTpvLkJ8+Z889WXdgaRiHtwmmaLxTJpzGhph6dVfG4Tg8yrw5i42Fu3bhJ342wk+9hRgwyskPRVoUHhq5RDTUb8xfMobLPJfVUKH2pOm6IaiyWKghGmAmmqBgXSVM2Qs7FG4m5drxpIhq5q3PpHiyXqIiI6iWgcQ5/YwWbas327QSpWcr2ayImSx1ELeLR7Z0h34jTNd+7cDvD1JlQFKhEX4io+d/SQmJt//Um6LQc/Zh87qhML4RAb6S/pZkhXiY+kbHBJNHEVjZByopdIcQdzkrJ5WtUaIT9+6BAHG4KabXdmpkEqAafMUN4cF1JkXs+8++Yqai2kFKdprqurWzh7ppzTUcXjNOWdg0eQwKN3RsZE/fWnK0BnHztKWIouyIj9ih0JaEWCsa6O3O3YuoXYKeONn3PSFFQUXK9uBt3poiISu9SPTtOMYVhNjXn///bt2rZ1d2ami2H7tufixxDdLzWfOyo2+tbNv6j3Zz+FpdkOjk285DLN4IAEiYiYxPFTK9e8/dae7dtdRCVz2+7tmWWlJfZJgFddodmRch+b58H9+1PGjyPG8IHJERfzt5M2NEtzE5G183XXaN69fRuhlaE5+sUnHz8WhubK0Go0Yxh2v7x8yvjGDaQqPndMXMytm050Clma7eDYxEsu0LzHZlc56J1/+eknzUWqI+W0Js0A6PvlU8aPI+aWVcDkiHK8UwhWAuHLcUgtB87MFAsbg3VekJQNjGRJxY3ZxEI7vVu9RITmhL+k1AIdr9rQelU78tRakcCpMY2d28CucihA+NfNKHvEvkBocqBAj4wZfJPBhv79t1/BOHFJMR5K9uwAY0AkpLzl0m56bVREWFQ4HiLCBoX16axRwYluNLO3XNrbvyuaMyIo0JuuD+6rlPfvFYLmDOrkS1tgN70O1AtrjwgbFOp41QHUAn0UMmrVgX4+1JzgqQ069A6deWqaqnVi4dCBA8pKSqzSLi4+c+bB/fu0OnLHFhtb+Z+b+fzjvbQ5WzSxlXUzfDaSDa0W8EbFRG1IT92YnrYR/IUhLe3DNSFdO/koZH4qBQhq8BelE8a1IsGYuNgas7kG/Ad/7925gy51IL6i4nM3ZaTX1NSYG3LWHD182CARwbkPIps3WPOgPldSQuS01NQkWRcxE9nAvBquz0B51qrv3L7dN6RxuRKRWcXnbtmwniiwpqbm8MEf4C5aIg+cBOmq15wvK0VzLpw9k1hlQWS2Vg0ywqe+c/s2sTGbyAYHkbZuWG9BnvrwDzRVg68oraLGBa6XiqdNeX5jRrq1RfB2yUhbmZToja/ugoeJ+ShkX7QGyh6hm61AA5OD6BTqxEIwAkgKfC48URwd30XbCca1IgFpoLS6uhqdHCa+ouJzMzdvRLVFXnYWlWZ8BY+atHhoxbIlKj6HKIqoesLIYWiBVaaG3dGknCo+d+fWLWjO7ONg7JyUDVStV5PWHy+ZN5cYDiLya0WC8SNtzkWoMpn6Iuv+iJzUqrOOHqFWDfOjovaWS7UiAbVR1Hwu/K0wSMW+CnfbyqgMPUI3wxvCbeixhMlBSN/ZCJXmKpMJrosnFaXic0mrK3OzjjPRTFrYuWJpAj3NI2xoBuviewZTjXsVn7vDdilcFj4TRLpDcCyGnnzKR8K82fQ0U6pm+lnYucXmRTp+5Ecmmkn3Y+dja9nKHkozhmHQ5JB5dSArAKik+Vx4LpEdmcKfe7Jutl3PSXydSrPjunm5YzSbKisdpDn7+DEqUpDmy7bbUhLmzXGEZlNlpYM029HNhKxghP43k8dRcL28FbLP3TgYh0JMxF3UzfX1deX3ypvy7969e5WmSuI+iEhFRcWmdRkrE5e9mZKEhtUpScuXJvgb9VqRQCcR6SQivURE7QJaabZZfm4ymZgsDapuBnoUX51MNCRuN2tIuhmnmUvkgRGtSDBhhM3PvRO6Gf7cy8H6aSLgloaGZOQkzKWlmT+eUjUTzaSfBSbdDN2pQGnrJCKVgDdx1Ii3lqeg7QLiyYmrlyfnZmcRjYhGHjx40BROysvv3WfoeqK1wLgrNF+5dOm5sWN6+3fr08O/T4/uroXePfwjQ4LWpzKeqUW9V/zQxKLc48fzsrPysrPyc3I2pqdSgfaWS3v4GMcNHzpu2NBxw+LGDR86Ji62q15DHQcwyiT9eoXgOeNgzph+kdRsYGBBJR8eNQjNGdrDnzpI5y2XBvh6g2ygdmvVOvqq+/fuiRYY25ex6hG2Vff272qvauSpuzhWdUzfCOpT68XC2H6RednZeAACzz52zKnZALPZnLR4YSggxHVO8O/6z3n1lfv3y2mRQBNdoXnhrJnSDk/BwcWm/NWJhWo+9/233kJvyKl4QW4O1SSFy3e0IgEaqK0F9Z9BKkKz0ZYGc+rEQjQnlSeYDXaV0JyMVUtIVZO7gISGJldNGZR0umrSU1N6n8T4jFPNgWY2V1fPmg58LMGf0KZwopeIpM88tY159ztRrys0z5w+TdbxGaMMeENyOcA29pZLNQLeu6sfvzyKuGM0ws4FEsQ3e8SFuUCiaaqrq19/+SVihAoeWukyKkaZRNrhaUd+xl2hufjMmei+EV31Wn+DzrXQ3agnxibBGitXgWZpbnaIiQJdprm6uvrVl14kxqb0ElEntbK7Ue8aKv4GXVe9dlL8aEcWpblCM4ZhVVWmK5cvX3U1XLt65fCBH4L8fGAvHmroNW87bXKwNBPwNXvENZrNZvNrL79EoKwW8KIiw386dfLalSuu0nLp2tUrDx/WEorfTsRFmu2U6PilvOysQF/vRqCFfGeBZmludoiJAl2g2Ww2z5wxjTAw1AJedGT4ZebjoxxHxcGcrUkzhmF5OVkBKNAC/nur33Tw1jEMY2km4Gv2iLM0m6urZ05/GdXK0ZHhVy5fcrw1m56zlWnGMCw3OyvAx0hoaGBDO7BnBj75ifw8vYRmKMAok9jMv1inXpu9ydtogTqRzcIBYrMt+jhgqtx2ctEObSRbWSPgDQ4PdadWhvfW+jQ3AG2joXnvvbWaairV1tbuytyW/tGH69Z+BELq2sVzZ0MnkGgzGGTi0B7+byQug2FlUmJywuIAX2+mMTX0u09CXC8RTRozamVSIiGfGVNfoArHIBX3DQlal7p23dq1UOBrP1jz0+lTVKYrKypefflFJbdh1YpGwBsUFkpaW0L9VkukeATNEGjUhjbKJCOiBo0dGhsf1xDGDo0dHRttkIoVXC+od5U8DrGNHqWQujC3rq4OPQ0DzfwExlV87sc7dqAw5efmUCfV4Qo+FY+jtK79knM6hgb4jx06hGiU+LjYscOGREeGE7s8gVaOCHO/VoaP4yk0k2xocMSE7WwFnI9gmolAoXR81RH6rScnDtbQubrqyCAVoxNDME68CbDb52ZbGX0tPYjmBqB9jA1HA8plPjZBCj4iaxiY4izNTJKB6U2hGZRg0ygysKYFT1HzuVERYa2IsgetbybesNzsrD7du+nEQrBzCQ1SkQHsZbLZzkRdpAGnZElb52utjqfsN/MTclXF5+7JtDmoPCfrOKFfUSGQdoXBRjFIbdsFbyOdWBA3sH+r2MoEOS7SXF9ff7qo6MjBA0cPH3I5HDl44Be6LgWGYbdu/lWQl1eQl4uGwry8rKNHxw4bOjC0z+DwsMFgl1R4eFCAtwKcLYsGfAtQ//NlpefLSs+VlpwvK/351MmIoMZzt9DMT2Bcgw+D/lpWdq60BJdP2Z4dmdQFKnBDGhQ1/NuvV8/33nrrBKVpCnJzTxQUVDx4gIIF43fu3D525Mejh1znBH73zz/+oBZOTXHa0qivr39rxXKtSKAR8nUigctBI+QbpOK3V77hyPlixH1bLBZ8m1AN/s/y46GD1GaAe+k6qZVE8FMrn0Bq7Tyyr1JOCKeTWsm0IS0+LhYKGv4119QQDeFI5Nfz5waHh6oFPLCI19WgFQnUAl5oQPdzDhyp4TTNd+/cCfTzoWXIjvhoLxllErWAtyolySmgUTnmHG88sZhUBWkLEOnqE/6RJBzavrWzsydou2AYdr6srF+vELWA1yyilnV85n0HFj44TXON2TwierCs4zMaIc/1IOAZpRLCD/YbScvq6upI4nDkIzsX2Cys0BbSFJrPlZZGBgcS46c68EvuOi1qAU/u1eGrzz99LBJO0wxeu3Nls1+ZPmXi+BeeneBKmAS+FdTJl5j/U/G5K5MTXdDQLM20IDZLoss0nystjbCi7I3vYx8VGz110kRXUMEBmzJh/KZ1GbW1j1945ArNj31FHMlQkJsT5NcItFrAfXNFirNAszQ3C7i0hbhG86/nyvqGBEOt7K2QqXicRbNn1tSYHUGi6XlajWYMw07k5eEaWgBNDrWA9+Zy54BmaaYFsVkSXaD5/DlgKzeizOcmzJ3liE5tOsewhNakGcOwgrzcQF8fnbgBaGByJCU6bkOzvUCXwUU7grSFOEvzudLSvj0btDI4gwZoZbei7OJ4c3O9SbCcgtwcfFFoI9BvJC1jMjnqwb86/C/4k3X0iJ5uT5uPXEraiEbbYE9solEmQeVDXXLUMAk1NI4QNZA7c0+9rLSEsJUBylzO/JmvWSyW5kXlsaW1sm4mgMb3oTSaHCuTEs+fK/vVJpw7e+aXf02aOCJ60KjY6FGx0aOHxAwOD6WOLunwzcYn8vMbQkF+1tEj4QHdaScOn0CgNUL+qqTEooICKJ+igoJN69KpQ65g67u3YXRs9OjYGCjwuIH9N6/L+O38ebRdfjt/Li87i9DK3gqpisdZMOt196PsEboZAl2YlxsMRjkagNaLhZ01qs5aFfgLAx7Xk/c5i6g4Un8iH9p6lKJ+5YlKUfG5e7dvR/VcXnYW08w2aY2Rj1xm0yigjdRgiyd+Uivo9vE5i+fMqq11t1aGj+MRupkAOtC6U5DJCYgj2LGrjuxLqSmrjlBrG42D9gIocxfPne3Obh/6TnqQboa3BW1oFZ+LnpSMxkmnENE2G0szrViIxKbQbJSKwdojStCJhQpOxwWzXm9FlD2OZgzDThYWThgxbHBYaFRkOCkMDg/VS0Rg8XiDczc7q/Vtjjasq6sbgPiuJNr1yYyo+Jy9jq/WR/zoKbhewZ39ovtGkNolKjJscHjom8tTWsVWRtWzB1ka6G2BM4ht/1lqaioqHnz07jsrli5ZmZS4MilxVXLSv/81ldofN0jFkSFBG9LWEiF1zXvBnf2oOZ9MmvVi4YwXpmxMT4Xy2ZiWmjB3jgFfaIAKxCgFG9KgqOHf5MWLso8dtVgsti0DPrU6xxAeD6UZJdtOvDAvj9oZb9gChCgVFbvL1WbRrBzsckXkQyyoQGkGu1yH2/zE2WkID7nUtmlm5wJR/po3Th0a8hBk7dwGS7PNSv/mBaJNl8bSbOe1aZFLrG5uuReGpblFkLVTKEszSzOKB2tpsJYGvQRY3Yy+J+6IN937ZcvpNk8uuSW8X7qjvR9XRxvTzRd+/620pListKQM7DcuBd4vJfTeLweHhxJhUGhvWu+Xngxcy90b4fMTyicqIhRsfbd19QJP5wHeL0tLobTLSktKis8yeb98HGZuuu4KzabKys8/3rMxPW1TRrrbwuaM9IyPPujZtbOPUu6nVjYEZu+XZuu/GrP57p07/XuF0I5Mtxw0Hluyis/dCh1v4iKqqTEfOvA97aojX1TUaqVBJpn+wpTN6zLc1uhERadPnnTkhXCa5kePHs6cMU3W8WnieDKb0zitZ5a1SKKr3i/N1dW0/gI9FrgWvbF/5pJ2bd2KwmHHwxq6tKjB+yWf2yKNy0yOguvlp1Lk52Sj90wbd5rmO7dv9/AxevJaYXbVkf2XoSmrjuyX3HJX5V4d3lm1kpZgNNFpmmtra6c+O1HS4WkVj4vOjrohrsZ1M7pYlFZ8VJqrGbxf0n693SdSaXZQN+PGtEDFJ1Z9uQkAJddLJxEdPXwIBZc27jTNGIbdvn07Y+2HwEFlcpL7QkryiqVL/I16nVhI7AKiXUjE0mz/hQROkW1dfDPR7G27IU0j4E0cOXz18mT3NToO2KrkpB8PHaTFl5ToCs2kItz58dTJItzvZXZ+TnZhXu7GjDSqzQO9X44fMWxcQxgePzSO1vul/VZvr1eNMsmAPj1R+cTS+fyE3i8LcnPyc4C083Oyc4475/3SnWDAutoYzSQBNd37ZXtF1v5zGUgb0uh2ClMPdScJ3wM/tm2a2Zlt+9Q25So7F+ju15WluSm82v8uSzNLM/2aB/vceOZVlmaWZpZmdzOA1sfaze2Hv+bV8axuRt8Td8QL7Xi/BIP8ROBSV9U0b9u3rdJ0YjgJ0iAfRu+X7L7AlqPYYrHsytyW8dGH61PXrk9duyEtNWHeHOoEirHB++XSlYlL30gEf5MXLwxkvV9aN7o2eL8E3kGhfJbNmDqFKkbo/RKKGv5NZfB+2XIt7mzJrlgaP58+9dJzk8YMiYkfOsSdAfd+KVFavV+qWO+XVkCd+mWg8X6ZY8/7JbHGSM7pGBbQfeywOHc2enxc7Ji4mA/f+U+N+fGHQDtNc3VVVWy/SLlXB9IJZe756IjBQJ3ZrjKZ2DV0BPHUdRrHj/xIuyKU+AoRofV+2eJNL+TLOj7z6e5dj1XVTtN8797d4M5+hJMH0orBFv3oyLFd8KjW+KFD0CdnaSZwBMfRNsGXK7rkq0XbmigcNrq04zMfvvMftE1p407TjNqFwhoAABzUSURBVGHYh++9A/wiSkTE6h+3RXRiIRqoizSYvF8O7NOTXa0PmVbxubttvV/mMnu/RKVt9X4pdltzw4p0YuHA0N4Xf/+dlmA00RWaMQw7V1qSn5ONeqd0Q/z40SPjRwwbHB4a3Tc8um94TN+IyJAgqu0BvV9C147nSovPlZb8dKooIqgHLfqo0npC4hoh/93Vq84B16DFUD67tzN4vzToYnBRQ4EP6NPz/bdXF1K9X9r6KW1eEvJzcwrz8+7dvYtSyxR3kWam4lo6vba21mKpqbVYYDh6+BCtxiV7d2S9X9r2F31V8k4axDsow4a0+LghhKhr8fPnWrp9m1h+G6OZ9LSs3xPXfk8Iq5SIUMthZ09IsLX4R3bVEZXC5kphaW5xfEkVsDQ3F7vUcliaSbC1+EeWZiqFzZXC0tzi+JIqYGluLnap5bA0k2Br8Y9sL5BKoYMpRP8PH+KUUr/F0tzi+OLOL+twB5jABybwfon79iI3hlxmlEnwIIYRcgbbEasn7aq3nBAOkI+3jIHmRu+XQOZ2vF+2eMM7VoEnjtDd/Ouv82Uk15dlv54H3i9fnDRxZHTUmCExeIiNigijnT2J7d+3qLAAD/lFhQXZx46Gsd4vrS8w8H6ZnHjyRGFRYX5RYf7JEwWb162jKgXo/XLMkFirtGOGDRqwef06kvdL6Anzt/Pna93uuZVKuMfRvGfH9kA/n05qZWetmhw0atb7ZdN/RlR87p7tmSgKuQ56vxTyfRQycqNo1Z01Kj+1csLI4TeuX0OLdX/cs2jeuW2rXiLWS0SoVYfGHWlLdg2dfSk1ZdUR2hakuJLHGTqo/x83rrsfYqJGD6J59/Zteikw4+BCLdJ6F+h0kWpXUFuOpZkqEzSlKTRD75ekpiEOHVbzucMGD/zzxg0CLzdHPIXmvTu3G2VioxQcxmyQijtrVDF9I2L6Rcb0i7CGyOiIcINEjHi/5DJtARo3fCgqx7q6uoGs90ur3UyzWj+XebU+4ohNwfUK6eIX26+vtUVA08T2iwwPCtCJgIN0H4VMzecOjxrUWkB7BM27t2caZRK4xs0gFfupFN98+YWF8q+ysjJ1zfsrkxNXL08GYUXKay/9i3YLEPB+mbp2w9q169d+tCF17dr3We+XjZt5dcD75eQNaanr134E5JOWunjubOoCQ4NUHBbQffXyFDwAga9YuiTn+DF84Vdj29TW1t66dXPyuHgVj9MI9OCBN1rD5Gh9mndu22qwGhgGqdhXKf/myy9QzWonXpiXS+2MW71fcogtQKz3S9TSgOfmgy3A1iOTmX7ixo9w1Pvl/fLy58eOQYEeOnDAjevutqFbmWa82yeC+hWi/F+HUcYwjJ0LJGHajB+dnT3BgY5XIhp62KABf7jXhm5NmoHXElQr4waGHU1MvcTS3Iz4kopylmYMw+6X3yNp6OFRA//8w32dQhdprq6uvnv3zr17d10OuzO3gVk6a7fPT6XY99WXVF7tp7A0kxBsxo8u0IwDXf68rQ09ImrQ77/+Wl5+z2VUyu/ds48BcdUVmr/b983A0N69unft08Pf1dDNRyFFDQwXUGYtjWZkl1qUazRjGFZuq6F1YmGAr3dogMuo+Pfy7/rqy/9yZDOV0zRXPHgQERSo5nObuNURjhy7YCsTLyJLMxXBZkxxmWbC5CBsaDhg1RRgJB2e3rQuA2162rjTND+4fz80oLtawDNKwZiay8EoFWtFAh+l/L9fODqCQX0AB71f6iRCB08vaEYaPLkoN3i/hKMcSq6Xy4SgX5R0eHp9WioVAFKK0zRjGPbVZ5+GBXQP6uQb3MXP5RDUyScyJPDbb74m3ZD9jxd+/62stOR8WSkeyvbu3GGgrKHzlku76XXREWExEWH43/CosFDW+yXxdgHvl927xUSGR0P5RIZHBgdSJ1l1YuGwQQOsogYCLy0ufnD/gf0GQq+Wl5e/Pu3FID+f4M6ucxLc2S/Qz2fqsxNu//03Wjht3BWaMQyrePDg5l9/3rr5l8vh5l9/VlZWUO+ppsb81WefbkhbuykjzTakp3/4Qa9uXcB+bI0SD6pOagXRSEREKxKMiYutAf/MeKi5d/cu6/2SkI+Kz922YYOlxgLlY6mpOXzgB9qzjhBRA4EbgffLyZvXZ9i2S9qG9NSd27bcunWT2poYhv1969atv1znBP/uzfr6OtrCSYku0kwqpbk+mkyVM6a+oOB2BAP7yJwqEQeLceVSNBCNRESo6zRY75eEcOBZRy57v9SJBERbNEZ4HDmnQ0zfiMuXLjYXCa6V40E0m0yV06c8r+R6oaJ3IU6lmT25CxVjU1YdoeWQ4moBLyoi7MrlS66B2Czf8hSaq6qqXpn6AtEL1ktEja8+oqRd082s90uUPECzY/4CSafO+SikOrGQ2i6gNw+XHAl4MX0jrl653CxoulCIR9BcVVX17xenErP8GiF4y99asfytN5aDvzC8sfyNpGUBvt5GqQQMUIAgo/ZdiFMVwb4f67+Kior+vdlz6BoWHqn43O2bN8GdUUBC9XXHfjxMazcDRuUyq7QBypPGjHp75YrGRlmx/O2VKyaNGaUWcBGgI69ebh2gW59mk8k0Y+oUQiurBdzB4aGXLtJbYCXFZ06fLPrp1MmfTp38+fSpzM2bqIu/vOXS7kb9yOjBI6IH4WHwsEEDu+g0tOijSusJiRtlksjggJExDfIZGT14UGgfqnB0YmHcgH4/nzoFpf3TqZMnTxTeuXOHqjJNlZUvPT9JyWswEdUCXnRk+JXWsKFbmWbcVp5MoKwRcAeG9bl44QJVZLQp+bk5tGvovOVSnUjQGMRCams9IezSPqZBKm4UjkhAK0OnvF9WVlS8+NyzKNBREWHu7xS2Js1VVabpLzSirBZyBzmDMjsXSEtqcyU6OxdYCTU030ZDu9nkaDWaq3FbmdDKagE3KiL00kVHtTJU1eyqo+Zil1qOszRjGFZZWTlt8nNKvnXZvoAX0y/SnZ1CV2h+9Ohhfk72D99+e3D/d66FA/u/mzF1yj/HYkMhqgW8wS79MLE0UylsrhQXaMYwzFRZ+fLk51CTY0j/vt/+9+uD3+93EZXvvj1y6GBlBc1EG9X4dJrmf85nWb5siVrA0wj5TQnEsI5GwBsU1sdZrczq5uailqkc12jGNXTFS8832tB6iUgj5GubQIuKx5k0ZhTtzDEJaKdpvnv3TqCfD22/gUkudtLVAqdtZfQBWN1sR7ZNvOQyzRBotFPYxDvxlkvVAt6J/Hy06WnjTtNcYzaPGhIt7fi0RsBrYpB7dQC2ssMjGNQHwL1fiqjCMsokpEF+pjEN0nQA7Q45WL5awEPLZHqf3VC1QUrzyNbdkFz0Jpvy1FqRwPF9gdSmqayseHnyc3KvZ8DPeNOCgtsxwNd49coVai2kFKdpxjDswm+/JcybM33K869MneJymDbl+cRFC65fu0q6IfgRnDdH+Wex1Ozekbk+de3G9NSN6ambMtKXzp9Lu2c7tIf/quREIqQsWQymXfCTOlD0cT+QI99MSYI530xJwjeBkw9l85ZL/VTKhbNeX5XSUOabKUnDBg+gAm2UisMCexD1rkpOTElgrPq5+FFo1f9+aSr1DkHVauWi2TPRqof070utGmyxtq06ecniHj5Gapl6iei5+NGrrE+9KiXp3y++QM0GvF/2DN6YnoYHIPCMDz/4+fSpeozSMPX1tI1oMlV+8J+3pzWNkxkvTJ45/eWcrOO0VZASXaGZVETzfjxXWjptyvOjYqJGD4khhZHRgw1SsZLrpeRzYNDgZ0mhgMK5QPJ5Go8eDaDzSaXic3ZlbkXvv6iwAIAitwHaKJN00alJx1KtSk5UWTvvxA1oRYJnR49AC3z48CHt8j0Vn7t3x3Y0Z0FeLnVCziiTdNNrSXtFly2cT3SgG6sWCiaOIlVd269nEJV7UPXOHWjV+czeLwlRK/kcOadjaA//MXGxpHYZHRs9ZkhMxkcfPnr0CC3W/XHPorn4zJnQgO5KrhetQ0WdSMD000k0KjGzjYqSadURWBu5aQOaMzfrOFgwTaG5q05N8vC1YmkCLc0TbHftV1ZU9OsZTIvUji2b0aqzjh1loFl96YKNc7GEebNpaKYYBpUVFX1D6GneuWULWnUzeL8U8hVcr+SExa0LtAfRXFp8NiywB2G5oss+iThKLVPc8TV0LM2QacdpJq1Dgu0CG8JbLlXxucuXLWnFg3E9heaykuKIoAACZZ1IgB9OIAbHeSFBLxahh6BRF2kwe7/sRa8gt9ooyMK8XCbdTOqFrExcSqubJ44cjqq9GrOZydLYnbkNzZmXk82km69ftekALV0wl1Y3T6BUzfSzsMdV75cGqQhtDhjXiYWwIcDgA5+7InFpawHtETSXFp8lUIYSWTJ/7on8vBMF+WjIOX5s/IjhwPtlZHh0ZHhMJPB+CRZ5WU9YgxHo/bKspLisuCGcLioKDwygoq8R8t9+Y0VjzpJisDVLKiZZGt4ySRet6tD336M5Z78yXSPkUasePngQUW9ZcfGpE4W0R0drhPx3Vq1EC2RyQdlVpz78g03Vr/zrBWqHQScWDo8a1FggXnVoD3/ap37XtupdmduorzrYkGbQRUdGQGlHR4YP6N1rzX/eLiosQBulqCD/u2/+26tbV3gUHdTQKUsTWsXkaH2ai8+caTQw5FIVj7N0wbyHjx6ieouIg0PQamosFhBqLZYjhw8aJEISUvCjn0qBBDltHh+FzFcpR7IpfJWMOdFsfioncja9al+VzU36MNykr8Imm5+K8VkceWpgsMUNsR44BwReU2MmGoIUOXXiREjnTnBGDAKdnLDI/UC3Ms0lZ8+EBXTXisAx10AKPE7C/LkPH9KjTJIghmE5Wcf0DDQTpjZq21HBImWz08sk5aQWRaQ4mJOUzdOqdnb25NSJE8G2QKcsSXCzydGaNJeVFIcHNtjK8IUGWtlhlNk1dMT70xIRZ2nGMAxo6C6dUQ39hntt6FajubS4OCLYBuXERQucQpmluSUgJsp0gWYIdE8EaNApXLbEbSaHKzRfuXx5+dKE16e9NGvGNJdDeGCPhoVHcpmKx1m2cL6zKLM0E+S1RMQ1miHQwV0abWidWPD82DFzXpnhIirTp82aPu2zj/c4YrQ4TbPFUjNu+FBph6fVAm5TgrWvLVXyOEucsZVR65ldddQSHMMyXaa5AWirDQ3GTIX8pqCi4nOUPM63+75Bm5427jTNd+/cDvT1pp4w5IJYYbfPZZQxDMs6ekTN5+rFQlKwviqNg3d6iYiUB34krU/wlktps0HHQugzGmUS2pzuqFoqdkPVSq7X6NhoWmgcScRt6AYNjcrNtbjMq8O7q1c9tl6naa6rq1u2cL6S56Xic9QC14OK76URcBMXLXTBwCCeqqiwYECfnoPDQ6PQEBEWERyIjhn7KuX9e4VEhYfZZAsPjYoIC/LzIQYT4AgrOQ9e8qCwPujZX95yaa9uXaIiaAqMCA5AG8xO1YE0VVMKDA+lVC3p7c9QdVAA8Sxw8BE8Nd1N0lVtK8Pw0P69QmZOe5kQtQuRU0UnQnv4K7leqiZwogaK2SvQz+fnn04/9h6cphnDsNpay7EfD3+2d8/nn+x1MXy897O9e7KPHa1z7EQmpsd49OiR2VxNCjVmc9bRIwbcTRtcJ9lNrz1XWlJjNlNzLpnXOK+mFfInjBwOctmWWWM2k87+UvG561M/oi3w2I8/AvWMr/SAa4bOlZbS5kyYN4eY0sOrHkZb9d07t/siKz3+USJbNqyjLfDo4UPEJIhRJumq05QxPPWiObPU1o0/oOoR8KltH7y62lJTwyR5B9NvXL/+9Reff/6xq5x8svfzj/d89dmnF21XqjDV7grNTGV5Tnp+TjYYw8anCSFSlxg2xCctWogi9ezokbRPYTabByAncgCk1q+jzZmfm0Oi+fIl+uN/EslV26yAIwqvrq7u1yuEwFTF5+ywPduFyJmXnUVkgzRfYqh66fx5Nk89iv6piZLbSqR90nyurLRn187w4H7Qrnot08uduHCBTbsy0FxVVUWieTPDccJ5Odkkmpm2IywjV01Ps8lkItG83XbxHYFaLphLaljID2lmOsthyby5qG5+1nYpKVFgm4u0T5oxDEtevBA2GEszFUqWZqpMPDolJWExQXMntfL3336lvd3Fc2YrrOc4agS8sUOH0GarqjKFB/YgNJ+c02F96lranDnHj4ElQVa72U+lIC2MJr61aM5s4gAGvOpY4hIaMVVWhgZ0R6vesmE9moGIZx89ohY0LIQyyiS+SvmF338jrqKRBTNfI06v1Aj48XH0VaNfaRPxdqubCZq1Iv7sf8+4X15O2x7//fILf4Ou4bBGhTRtzfu02Sy1lmUL50OkDFJxb/+u+bk5tDkvXbwwZEA/uHpEJxZOHhd/l+60KwzD/vvF592sVfsoZGkfMFRtsSxdMI+ouk/3bicK6Pd7XrpwIbZfJMypEwunTpxw585t2pv88rNPu+q18KnxqtfQZmtzie2fZhWPs3UjvTLDMOzhw9rB4aF6CfBZ6G/U3bh2jakJTxad0EtFPnIwFzB5bDxTtn/SVyxdAm1xFZ+z3XaXB/qtWotlYJ/esOru3gY7/tZPFOTrxUJY9ZTxY9FCSPGUJYutVXM/2b2LdJX4aKmxwGMmjTJJd6OetFOLyNbmIk8EzRsz0pgaprq6amBoA1LdDNrLzIctgTPvrDRPGj2KqUBgslsHK/ChD8YXidjfhb9I+isM4w8YhuVmZRE0Pxc/2k7VxJbBf9zX7rLdDYB+y1Rpggv5QdUGnZ2q0W95fpylmaWZpdnj31PCblbxOKxuJjUXq5tJAvH0jyzNrKXh6Yw6fn8rli6BI3T2dbPFUkP0Au3bzeBcJQ+wm58fO8aOEFC7eY/teR3ot2x0s1FP2sCL5mxb8XZrNy+Y+Rp0XwBoTmfsBf7+26/Bnf2MuPP6bnot6eQKtC1/PHhAJxbAgQW39wKPN/QCgfO4mHqGs4UwDFu2oOHgGLCShNldJEpzZ43qXFkp+qRtN94+ad6zPdNPpYALypTcjpsy0mlb6PLFi1GRYXDfP5wKvn6V/iSxX8+fg6NpPgqZRsi3PxXc7GMaOVnHibMZDFLR6hUpTEAvXTAPzsgYZZJAP5/jR36kffAqkykyuOHgGJ1YGD90yK2b9N7+aL/usYntkOad27biZ3FIfBQy6Mf79MkiagNcvPD7oLA+GuvkmYLrtXD2TNo9P+fKSvv2DCY2/Ss4HT967x1qgURKs9P81x9/9Onhj+63W5mcSLsXY9/XX2kEPG/8xD29WNjNoDv642HixohIfX39nFf/Led0hItXVXzuyNjom3/9RWRoo5H2RvPObVv1uNkAUfaWSz/bu4faNhcvXhgY2puYB1byOK+9/FJ1dTU157nS0siQIAJlJY8z//XXzGbGvfgtMd6MYVh+Tk6Arzf8GYE7glcmJ1I9nNbX16eueV8j5KNAH/uRRkOX37s3eVw84QdMzeeOio3+m8EfK1UsnpnSrmjesz0TaGVpg1b2Ucg+/3gvVe6XL10cHB6Kovz6tJfNdCifL7NBWcXjLJj5msVioZaJpjS7boaFF+TmBPr5oEAzmRypa97XCgUE0N2N+qxjR9E7hPH798snjxuLAj1maOzff9+i5mwrKe2H5j07thtlErgKFBgYCtmXn35CbYbLly5GRYQTKKt4nFkzptHq2l/Pn+vXKwRqZW+FTMXnLpozq/ZxKLeQboYPUpiXG9TJlwBaLeC99cZyWhs67YM1WpEA7hPTiYXdvQ1ZR49QpXG/vHzy+LHE4icVnxs/NJbJYzb1656W0k5o3pW5zSgTwz15cHnxF598TJX1pYsXSFp51nR6lM+fK7NBmcdZPGd2bW0ttUxqSgvpZlhRYV5uoK8PGF3Bz9NRC3irUpLpgYYmB76aTycW+ht1x+hsaAD0OBugRw2JaaM2dHugGdjKEnD44mNs5Qu/DwzrQ2hlJY/z+ssvmc10tjJiYHgrZMBWdsDAILBuUZrpbeikRNo9aanvvwdsaBxo2ClkAvr5sfGohh4VG33rZtvrFLZ5mndnbkNHMPBuH42tfOnChUG2KDN1+4CtHNzQ7WtA+fVXLRYndsi1NM0QaFxDgzP4YKdwVUoy7ShH6pr3tEI+NDn0QEPrGU0OxIZW8blj4mLbXKewbdP8/f/2oSj7KuS0BobZbB47LI7o7gBbGRgYNFr5zxs3BvTuZbWVwbl4C2fPfGy3j9DKMOIGmjEMK8iFNnSDyaHic9I//IB0J/Bj2gfva0VIp9Db8PPpU9Sc0ORApTRx9MjKikpqTo9Nads0vzx5ElzOi7smUdB2+zAMu3H9ur8RLMn3Uch0YuHsGdNpu30Yhn356SfEpgytkL94ziwHbWW0gd1DM4ZhhXm5wZ18YW9BJxIODO1dwzB0mPbBGrCKHzc55JyOq1ekoDdMxCHQDTM1cplWJCgqLCCuen6kbdP8woTxUI9qhLwNzBO5N65dC8D92Rik4j7du927e5epYT7ZvQuu7tCKwJJ8F1Bu0TEN6m0fOXQQGht6iahfz5CqKhM1D0xZtnAB7DOo+NyVSYlM2e6Xlw8KD4UT6XqJKC8nmymnB6a3bZqnTmygWSvk/3joIJN8CZr1ElFkSJAdx6Cf7tkNaVbzucsWzGMq0H6623Qz+Nm5dhXuBNNLRP179bRD89aN66EVoeJzVyUn2XmEZ8eMBupZLtNLREwbxux8vRUvtR+aD36/n0mOKM0RwYEVDx4w5URpTpg7mymb/XR30nzl0sVu+A6/x9K8KSPdQZonjBrJ0my/iVvkKqqbWZrt62aW5hZBsBkLZWlmdTOKE2tpoNLAWEsDwzDW0rBhwm0fWN3M6mYUNlY3o9JgdTOQBqubbZhw2wdWN7O6GYWN1c2oNFjdDKTB6mYbJtz2gdXNrG5GYWN1MyoNVjcDabC62YYJt31gdTOrm1HYWN2MSoPVzUAarG62YcJtH1jdzOpmFDZWN6PSYHUzkAarm22YcNsHVjezuhmFjdXNqDRY3QykwepmGybc9oHVzaxuRmFjdTMqDVY3A2mwutmGCbd9IHSzRsR3dLV+kKN7Txa3xb0nJsZ9gc6s1h8BN7qyO6ncRjKoiNjlqhLw7ND8159/9vA2GKRinVgYHtTDZGLcVf/xrp3EdqOFs2e59jDAPyyP4wOOlfHast6eF5++PcGxs/CwXSYHxvbv4fLFC120aqNMopeI+oYEV5mqmPJvykiD29GVPM4biUuZsmEYNm7EMEizViRgd7naEVQzX/rovXclHZ6Sczp29zZcYnYn9ejRowUzX1NwOip5nLdWpNRj9Uz38dOpIh+FTMHxknl1sHM2PdPXYfoXn3ys4HRUcL2MUvGJfHrffhiG1dXVvfKvF8TPPCXt+HTcgH6mSsZ3zE51lRUVsf0iZR2fFj/z1Gsv/Yv2gBj49YLcHL1EpOB6KbheX332qZ0yV69IkTzzlNyrQ8+unW9cv24np6ddatt2c3VV1bq1H82f+Xr+4zbK15jNhw/8kHX0yKNHD+23wcHv98997dWdW7e4dvwA7oPw4Z4d2+e89ur+/+2zX9etWzdXr1i+bOH83349bz+nnau/nT+/bOGCt95Y8djjPff/b9+c117du2sH7THVRBUmU2XaB2sWzJp58kQhkdgmIm2b5jYhYvYm3SYBlma3iZqtqMUlwNLc4iJmK3CbBFia3SZqtqIWlwBLc4uLmK3AbRJgaXabqNmKWlwCLM0tLmK2ArdJgKXZbaJmK2pxCbA0t7iI2QrcJgGWZreJmq2oxSXA0tziImYrcJsEWJrdJmq2ohaXwP8DDVtGD+pfZKYAAAAASUVORK5CYII=;" parent="1" vertex="1">
          <mxGeometry x="376.5" y="248.6" width="67" height="62.81" as="geometry" />
        </mxCell>
        <mxCell id="tWeXx8UcxyFs-O_q8dnI-1" value="&lt;h1 style=&quot;margin-top: 0px;&quot;&gt;&lt;span style=&quot;font-weight: normal;&quot;&gt;&lt;font&gt;Temperatura&lt;br&gt;Vibração&lt;br&gt;&amp;nbsp;Luminosidade Qualidade do ar&lt;br&gt;&lt;/font&gt;&lt;/span&gt;Leituras periódicas &lt;span style=&quot;font-weight: normal;&quot;&gt;(intervalo configurável, ex. 1–10 s)&lt;font&gt;&lt;/font&gt;&lt;/span&gt;&lt;/h1&gt;" style="text;html=1;whiteSpace=wrap;overflow=hidden;rounded=0;fontSize=6;spacing=5;align=center;spacingTop=0;fontStyle=2" parent="1" vertex="1">
          <mxGeometry x="338.75" y="520" width="137.5" height="120" as="geometry" />
        </mxCell>
        <mxCell id="tWeXx8UcxyFs-O_q8dnI-2" style="endArrow=block;entryX=0.499;entryY=1.024;entryDx=0;entryDy=0;entryPerimeter=0;" parent="1" target="XDLAwlJEfVSTo-9sgTL8-25" edge="1">
          <mxGeometry relative="1" as="geometry">
            <mxPoint x="410" y="400" as="sourcePoint" />
            <mxPoint x="410" y="370" as="targetPoint" />
            <Array as="points" />
          </mxGeometry>
        </mxCell>
        <mxCell id="tWeXx8UcxyFs-O_q8dnI-4" value="&lt;h1 style=&quot;margin-top: 0px; line-height: 100%;&quot;&gt;&lt;span style=&quot;font-weight: normal;&quot;&gt;&lt;font&gt;Microcontrolador&lt;br&gt;&lt;/font&gt;&lt;/span&gt;&lt;span style=&quot;font-weight: normal; background-color: transparent; color: light-dark(rgb(0, 0, 0), rgb(255, 255, 255));&quot;&gt;responsável por ler os sensores e enviar os dados com timestamp em JSON.&lt;br&gt;&lt;br&gt;&lt;/span&gt;&lt;/h1&gt;" style="text;html=1;whiteSpace=wrap;overflow=hidden;rounded=0;align=right;fontSize=6;spacing=5;spacingTop=3;textShadow=0;fontStyle=2" parent="1" vertex="1">
          <mxGeometry x="210" y="235" width="140" height="119" as="geometry" />
        </mxCell>
        <mxCell id="tWeXx8UcxyFs-O_q8dnI-6" value="&#xa;Conversão e pré-processamento dos dados (raw → CSV/JSON → INSERT no banco).&#xa;&#xa;" style="text;html=1;align=center;verticalAlign=middle;whiteSpace=wrap;rounded=0;fontStyle=2" parent="1" vertex="1">
          <mxGeometry x="525" y="248.6" width="60" height="30" as="geometry" />
        </mxCell>
        <mxCell id="tWeXx8UcxyFs-O_q8dnI-7" value="Armazenamento relacional conforme DER; chaves/índices para integridade e consulta.&lt;br&gt;Tabelas: devices, readings (temp, vib, lum, air_q...), alerts, models" style="text;html=1;align=center;verticalAlign=middle;whiteSpace=wrap;rounded=0;fontStyle=2" parent="1" vertex="1">
          <mxGeometry x="683" y="278.6" width="60" height="30" as="geometry" />
        </mxCell>
        <mxCell id="tWeXx8UcxyFs-O_q8dnI-8" value="" style="shape=step;perimeter=stepPerimeter;whiteSpace=wrap;html=1;fixedSize=1;" parent="1" vertex="1">
          <mxGeometry x="820" y="121.1" width="120" height="80" as="geometry" />
        </mxCell>
        <mxCell id="tWeXx8UcxyFs-O_q8dnI-9" value="" style="sketch=0;points=[[0,0,0],[0.25,0,0],[0.5,0,0],[0.75,0,0],[1,0,0],[0,1,0],[0.25,1,0],[0.5,1,0],[0.75,1,0],[1,1,0],[0,0.25,0],[0,0.5,0],[0,0.75,0],[1,0.25,0],[1,0.5,0],[1,0.75,0]];outlineConnect=0;fontColor=#232F3E;fillColor=#01A88D;strokeColor=#ffffff;dashed=0;verticalLabelPosition=bottom;verticalAlign=top;align=center;html=1;fontSize=12;fontStyle=0;aspect=fixed;shape=mxgraph.aws4.resourceIcon;resIcon=mxgraph.aws4.lookout_for_metrics;" parent="1" vertex="1">
          <mxGeometry x="846" y="127.5" width="68" height="68" as="geometry" />
        </mxCell>
        <mxCell id="tWeXx8UcxyFs-O_q8dnI-10" value="ML (batch simples)" style="text;html=1;align=center;verticalAlign=middle;resizable=0;points=[];autosize=1;strokeColor=none;fillColor=none;fontStyle=1" parent="1" vertex="1">
          <mxGeometry x="820" y="91.1" width="120" height="30" as="geometry" />
        </mxCell>
        <mxCell id="tWeXx8UcxyFs-O_q8dnI-11" value="&lt;br&gt;Treino/inferência a partir do DB; gera métrica + gráficos&lt;span style=&quot;background-color: transparent; color: light-dark(rgb(0, 0, 0), rgb(255, 255, 255));&quot;&gt;.&lt;/span&gt;&lt;div&gt;&lt;br&gt;&lt;/div&gt;" style="text;html=1;align=center;verticalAlign=middle;whiteSpace=wrap;rounded=0;fontStyle=2" parent="1" vertex="1">
          <mxGeometry x="854" y="218.6" width="60" height="30" as="geometry" />
        </mxCell>
        <mxCell id="tWeXx8UcxyFs-O_q8dnI-13" style="endArrow=block;entryX=0.5;entryY=0;entryDx=0;entryDy=0;" parent="1" target="XDLAwlJEfVSTo-9sgTL8-20" edge="1">
          <mxGeometry relative="1" as="geometry">
            <mxPoint x="940" y="160" as="sourcePoint" />
            <mxPoint x="950" y="270" as="targetPoint" />
            <Array as="points">
              <mxPoint x="980" y="160" />
            </Array>
          </mxGeometry>
        </mxCell>
        <mxCell id="tWeXx8UcxyFs-O_q8dnI-15" value="&#xa;KPIs: média/variação dos sensores; score do modelo; quantidade de alertas.&#xa;&#xa;" style="text;html=1;align=center;verticalAlign=middle;whiteSpace=wrap;rounded=0;fontStyle=2" parent="1" vertex="1">
          <mxGeometry x="917.08" y="413.5" width="130" height="30" as="geometry" />
        </mxCell>
        <mxCell id="tWeXx8UcxyFs-O_q8dnI-18" value="&lt;br&gt;ALERTA HERMIA |&lt;div&gt;&amp;nbsp;disp: esp32-01 | vib: 0,92 | air_q: 58 | ts: 2025-10-02 12:05 | Ação: verificar rolamento Linha A.&lt;/div&gt;&lt;div&gt;&lt;br&gt;&lt;/div&gt;&lt;div&gt;Registrar evento em tabela alerts (timestamp, regra, valor, ação)&lt;br&gt;&lt;br&gt;&lt;/div&gt;" style="text;html=1;align=center;verticalAlign=middle;whiteSpace=wrap;rounded=0;fontStyle=2" parent="1" vertex="1">
          <mxGeometry x="742" y="630" width="140" height="30" as="geometry" />
        </mxCell>
        <mxCell id="tWeXx8UcxyFs-O_q8dnI-21" style="endArrow=block;exitX=0;exitY=0.5;exitDx=0;exitDy=0;" parent="1" source="XDLAwlJEfVSTo-9sgTL8-20" edge="1">
          <mxGeometry relative="1" as="geometry">
            <mxPoint x="820" y="320" as="sourcePoint" />
            <mxPoint x="810" y="440" as="targetPoint" />
            <Array as="points">
              <mxPoint x="810" y="320" />
            </Array>
          </mxGeometry>
        </mxCell>
        <mxCell id="tWeXx8UcxyFs-O_q8dnI-24" value="&lt;br&gt;Broker/endpoint de ingestão assina e recebe mensagens do ESP32.&lt;br&gt;" style="text;align=right;verticalAlign=middle;rounded=0;imageAspect=1;fillColor=none;fontColor=default;whiteSpace=wrap;html=1;fontStyle=2" parent="1" vertex="1">
          <mxGeometry x="295" y="132" width="60" height="30" as="geometry" />
        </mxCell>
        <mxCell id="shLgO2Z_ct0-6_vLgMN7-1" value="&#xa;JSON com timestamp&#xa;&#xa;" style="text;html=1;align=center;verticalAlign=middle;whiteSpace=wrap;rounded=0;fontSize=6;fontStyle=2" vertex="1" parent="1">
          <mxGeometry x="285" y="210" width="180" height="30" as="geometry" />
        </mxCell>
      </root>
    </mxGraphModel>
  </diagram>
</mxfile>
